<svg xmlns="http://www.w3.org/2000/svg" viewBox="0 0 1060 680">
<style>
  text { font-family: "Helvetica Neue", Helvetica, Arial, "PingFang SC", "Microsoft YaHei", sans-serif; }
</style>
<defs>
  <marker id="arr" markerWidth="10" markerHeight="7" refX="10" refY="3.5" orient="auto"><polygon points="0 0, 10 3.5, 0 7" fill="#2563eb"/></marker>
  <marker id="arr-g" markerWidth="10" markerHeight="7" refX="10" refY="3.5" orient="auto"><polygon points="0 0, 10 3.5, 0 7" fill="#16a34a"/></marker>
  <marker id="arr-p" markerWidth="10" markerHeight="7" refX="10" refY="3.5" orient="auto"><polygon points="0 0, 10 3.5, 0 7" fill="#9333ea"/></marker>
  <marker id="arr-o" markerWidth="10" markerHeight="7" refX="10" refY="3.5" orient="auto"><polygon points="0 0, 10 3.5, 0 7" fill="#ea580c"/></marker>
  <marker id="arr-r" markerWidth="10" markerHeight="7" refX="10" refY="3.5" orient="auto"><polygon points="0 0, 10 3.5, 0 7" fill="#dc2626"/></marker>
</defs>
<rect width="1060" height="680" fill="#ffffff"/>
<text x="530" y="36" text-anchor="middle" font-size="17" font-weight="700" fill="#111827">tech-report 工作流程（Protocol v1.0）</text>
<rect x="40" y="60" width="140" height="80" rx="8" fill="#eff6ff" stroke="#bfdbfe" stroke-width="1.5"/>
<text x="110" y="90" text-anchor="middle" font-size="15" font-weight="700" fill="#1e40af">@report</text>
<text x="110" y="108" text-anchor="middle" font-size="10" fill="#6b7280">代码 / commit / URL</text>
<text x="110" y="122" text-anchor="middle" font-size="10" fill="#6b7280">+ 问题描述</text>
<line x1="180" y1="100" x2="245" y2="100" stroke="#2563eb" stroke-width="1.5" marker-end="url(#arr)"/>
<rect x="250" y="55" width="195" height="95" rx="10" fill="#f0fdf4" stroke="#16a34a" stroke-width="2"/>
<text x="347" y="78" text-anchor="middle" font-size="14" font-weight="700" fill="#111827">SKILL.md</text>
<text x="347" y="94" text-anchor="middle" font-size="10" fill="#16a34a">7 步编排指令</text>
<text x="347" y="110" text-anchor="middle" font-size="10" fill="#6b7280">1. 解析插件</text>
<text x="347" y="124" text-anchor="middle" font-size="10" fill="#6b7280">2-4. 选尾骨 → 生成章节</text>
<text x="347" y="138" text-anchor="middle" font-size="10" fill="#6b7280">5-7. 组装 → 校验 → 输出</text>
<line x1="445" y1="100" x2="525" y2="100" stroke="#9333ea" stroke-width="1.5" stroke-dasharray="6,3" marker-end="url(#arr-p)"/>
<text x="481" y="90" text-anchor="middle" font-size="9" fill="#9333ea">可选</text>
<rect x="530" y="55" width="195" height="95" rx="8" fill="#faf5ff" stroke="#c4b5fd" stroke-width="1.5" stroke-dasharray="6,3"/>
<text x="627" y="76" text-anchor="middle" font-size="13" font-weight="600" fill="#7c3aed">plugins.yaml</text>
<text x="627" y="92" text-anchor="middle" font-size="10" fill="#9333ea">能力注册表</text>
<rect x="543" y="102" width="82" height="18" rx="4" fill="#ede9fe" stroke="none"/>
<text x="584" y="115" text-anchor="middle" font-size="9" fill="#7c3aed">diagram 图表</text>
<rect x="631" y="102" width="82" height="18" rx="4" fill="#ede9fe" stroke="none"/>
<text x="672" y="115" text-anchor="middle" font-size="9" fill="#7c3aed">illustration 配图</text>
<rect x="543" y="125" width="82" height="18" rx="4" fill="#ede9fe" stroke="none"/>
<text x="584" y="138" text-anchor="middle" font-size="9" fill="#7c3aed">data_source</text>
<rect x="631" y="125" width="82" height="18" rx="4" fill="#ede9fe" stroke="none"/>
<text x="672" y="138" text-anchor="middle" font-size="9" fill="#7c3aed">browser</text>
<line x1="347" y1="150" x2="347" y2="200" stroke="#16a34a" stroke-width="1.5" marker-end="url(#arr-g)"/>
<text x="355" y="172" text-anchor="start" font-size="9" fill="#16a34a">读取</text>
<rect x="55" y="205" width="470" height="100" rx="8" fill="#faf5ff" stroke="#e9d5ff" stroke-width="1.5" stroke-dasharray="6,3"/>
<text x="290" y="224" text-anchor="middle" font-size="11" font-weight="600" fill="#7c3aed">references/ 三文件参考系统</text>
<rect x="70" y="237" width="130" height="55" rx="6" fill="#dbeafe" stroke="#93c5fd" stroke-width="1"/>
<text x="135" y="257" text-anchor="middle" font-size="10" font-weight="600" fill="#1e40af">report-spines</text>
<text x="135" y="272" text-anchor="middle" font-size="9" fill="#6b7280">报告骨架 +</text>
<text x="135" y="284" text-anchor="middle" font-size="9" fill="#6b7280">Request 构造规则</text>
<rect x="215" y="237" width="145" height="55" rx="6" fill="#dcfce7" stroke="#86efac" stroke-width="1"/>
<text x="287" y="257" text-anchor="middle" font-size="10" font-weight="600" fill="#166534">section-archetypes</text>
<text x="287" y="272" text-anchor="middle" font-size="9" fill="#6b7280">章节模板 +</text>
<text x="287" y="284" text-anchor="middle" font-size="9" fill="#6b7280">降级回填规则</text>
<rect x="375" y="237" width="135" height="55" rx="6" fill="#fef3c7" stroke="#fde68a" stroke-width="1"/>
<text x="442" y="257" text-anchor="middle" font-size="10" font-weight="600" fill="#92400e">writing-dna</text>
<text x="442" y="272" text-anchor="middle" font-size="9" fill="#6b7280">风格锁定 +</text>
<text x="442" y="284" text-anchor="middle" font-size="9" fill="#6b7280">报告外壳</text>
<rect x="560" y="215" width="170" height="50" rx="6" fill="#ffffff" stroke="#d1d5db" stroke-width="1.5"/>
<text x="645" y="237" text-anchor="middle" font-size="10" font-weight="500" fill="#111827">resolve-plugins.py</text>
<text x="645" y="253" text-anchor="middle" font-size="9" fill="#6b7280">探测已安装插件能力</text>
<line x1="627" y1="150" x2="627" y2="210" stroke="#9333ea" stroke-width="1.5" stroke-dasharray="6,3" marker-end="url(#arr-p)"/>
<rect x="40" y="330" width="980" height="130" rx="10" fill="#fff7ed" stroke="#fed7aa" stroke-width="1.5" stroke-dasharray="6,3"/>
<text x="60" y="350" font-size="11" font-weight="700" fill="#ea580c">Plugin Capability Protocol v1.0（Step 4 — 图表 / 配图 slot）</text>
<rect x="55" y="362" width="160" height="52" rx="6" fill="#dbeafe" stroke="#93c5fd" stroke-width="1.5"/>
<text x="135" y="384" text-anchor="middle" font-size="11" font-weight="600" fill="#1e40af">CapabilityRequest</text>
<text x="135" y="400" text-anchor="middle" font-size="9" fill="#6b7280">intent + slot_id + content</text>
<path d="M 290 305 L 290 318 L 42 318 L 42 388 L 55 388" stroke="#2563eb" stroke-width="1.5" fill="none" marker-end="url(#arr)"/>
<text x="166" y="310" text-anchor="middle" font-size="9" fill="#2563eb">构造</text>
<line x1="215" y1="388" x2="290" y2="388" stroke="#ea580c" stroke-width="1.5" marker-end="url(#arr-o)"/>
<rect x="295" y="360" width="175" height="56" rx="8" fill="#fff7ed" stroke="#fdba74" stroke-width="2"/>
<rect x="300" y="365" width="165" height="46" rx="5" fill="none" stroke="#fdba74" stroke-width="1" opacity="0.6"/>
<text x="382" y="385" text-anchor="middle" font-size="13" font-weight="700" fill="#111827">Host / AI Agent</text>
<text x="382" y="403" text-anchor="middle" font-size="9" fill="#6b7280">翻译语义 + 选择提供方</text>
<path d="M 645 265 L 645 310 L 382 310 L 382 358" stroke="#9333ea" stroke-width="1.5" fill="none" stroke-dasharray="6,3" marker-end="url(#arr-p)"/>
<text x="545" y="290" text-anchor="middle" font-size="9" fill="#9333ea">可用能力</text>
<line x1="470" y1="388" x2="545" y2="388" stroke="#16a34a" stroke-width="1.5" marker-end="url(#arr-g)"/>
<text x="507" y="380" text-anchor="middle" font-size="9" fill="#16a34a">原生调用</text>
<rect x="550" y="362" width="165" height="52" rx="6" fill="#dcfce7" stroke="#86efac" stroke-width="1.5"/>
<text x="632" y="384" text-anchor="middle" font-size="12" font-weight="600" fill="#166534">已安装 Skill</text>
<text x="632" y="400" text-anchor="middle" font-size="9" fill="#6b7280">SVG / PNG / 图片</text>
<line x1="715" y1="388" x2="785" y2="388" stroke="#dc2626" stroke-width="1.5" marker-end="url(#arr-r)"/>
<rect x="790" y="360" width="210" height="55" rx="6" fill="#fee2e2" stroke="#fca5a5" stroke-width="1.5"/>
<text x="895" y="382" text-anchor="middle" font-size="11" font-weight="600" fill="#dc2626">CapabilityResponse</text>
<text x="895" y="398" text-anchor="middle" font-size="9" fill="#6b7280">status + artifacts + fallback</text>
<rect x="798" y="420" width="50" height="16" rx="3" fill="#dcfce7"/>
<text x="823" y="431" text-anchor="middle" font-size="9" fill="#166534">success</text>
<rect x="856" y="420" width="56" height="16" rx="3" fill="#fef3c7"/>
<text x="884" y="431" text-anchor="middle" font-size="9" fill="#92400e">degraded</text>
<rect x="920" y="420" width="38" height="16" rx="3" fill="#fee2e2"/>
<text x="939" y="431" text-anchor="middle" font-size="9" fill="#dc2626">failed</text>
<rect x="966" y="420" width="46" height="16" rx="3" fill="#f3f4f6"/>
<text x="989" y="431" text-anchor="middle" font-size="9" fill="#6b7280">skipped</text>
<path d="M 895 415 L 895 480 L 410 480 L 410 500" stroke="#2563eb" stroke-width="1.5" fill="none" marker-end="url(#arr)"/>
<text x="664" y="472" text-anchor="middle" font-size="9" fill="#2563eb">回填</text>
<rect x="305" y="502" width="210" height="55" rx="10" fill="#fef3c7" stroke="#fde68a" stroke-width="2"/>
<text x="410" y="525" text-anchor="middle" font-size="13" font-weight="700" fill="#111827">Verify Gate</text>
<text x="410" y="542" text-anchor="middle" font-size="10" fill="#6b7280">术语 / 图文 / 数据 / 引用 / 严重度</text>
<line x1="515" y1="530" x2="595" y2="530" stroke="#2563eb" stroke-width="1.5" marker-end="url(#arr)"/>
<text x="555" y="522" text-anchor="middle" font-size="9" fill="#2563eb">通过</text>
<rect x="600" y="502" width="230" height="55" rx="10" fill="#f0fdf4" stroke="#16a34a" stroke-width="2"/>
<text x="715" y="525" text-anchor="middle" font-size="15" font-weight="700" fill="#111827">report.md</text>
<text x="715" y="542" text-anchor="middle" font-size="10" fill="#6b7280">结构化中文技术报告 + 图表</text>
<rect x="40" y="580" width="980" height="78" rx="8" fill="#f9fafb" stroke="#e5e7eb" stroke-width="1"/>
<text x="60" y="600" font-size="11" font-weight="600" fill="#374151">图例</text>
<line x1="60" y1="620" x2="90" y2="620" stroke="#2563eb" stroke-width="1.5" marker-end="url(#arr)"/>
<text x="95" y="624" font-size="10" fill="#6b7280">核心流程</text>
<line x1="180" y1="620" x2="210" y2="620" stroke="#16a34a" stroke-width="1.5" marker-end="url(#arr-g)"/>
<text x="215" y="624" font-size="10" fill="#6b7280">参考文件读取</text>
<line x1="340" y1="620" x2="370" y2="620" stroke="#9333ea" stroke-width="1.5" stroke-dasharray="4,2" marker-end="url(#arr-p)"/>
<text x="375" y="624" font-size="10" fill="#6b7280">插件路径（可选）</text>
<line x1="530" y1="620" x2="560" y2="620" stroke="#ea580c" stroke-width="1.5" marker-end="url(#arr-o)"/>
<text x="565" y="624" font-size="10" fill="#6b7280">协议: Request</text>
<line x1="700" y1="620" x2="730" y2="620" stroke="#dc2626" stroke-width="1.5" marker-end="url(#arr-r)"/>
<text x="735" y="624" font-size="10" fill="#6b7280">协议: Response</text>
<text x="60" y="645" font-size="10" fill="#a0a0a0">状态语义: success(成功) / degraded(降级) / failed(失败) / skipped(跳过) — 每种状态对 artifacts 和 fallback_text 有明确约束</text>
</svg>