<svg xmlns="http://www.w3.org/2000/svg" viewBox="0 0 960 560">
<style>
  text { font-family: "Helvetica Neue", Helvetica, Arial, "PingFang SC", sans-serif; }
</style>
<defs>
  <marker id="arr" markerWidth="10" markerHeight="7" refX="10" refY="3.5" orient="auto">
    <polygon points="0 0, 10 3.5, 0 7" fill="#2563eb"/>
  </marker>
  <marker id="arr-g" markerWidth="10" markerHeight="7" refX="10" refY="3.5" orient="auto">
    <polygon points="0 0, 10 3.5, 0 7" fill="#16a34a"/>
  </marker>
  <marker id="arr-p" markerWidth="10" markerHeight="7" refX="10" refY="3.5" orient="auto">
    <polygon points="0 0, 10 3.5, 0 7" fill="#9333ea"/>
  </marker>
</defs>
<rect width="960" height="560" fill="#ffffff"/>
<text x="480" y="36" text-anchor="middle" font-size="16" font-weight="700" fill="#111827">tech-report 工作流程</text>
<rect x="40" y="70" width="145" height="85" rx="8" fill="#eff6ff" stroke="#bfdbfe" stroke-width="1.5"/>
<text x="112" y="97" text-anchor="middle" font-size="14" font-weight="600" fill="#1e40af">@report</text>
<text x="112" y="114" text-anchor="middle" font-size="10" fill="#6b7280">代码 / commit / URL</text>
<text x="112" y="128" text-anchor="middle" font-size="10" fill="#6b7280">+ 问题描述</text>
<line x1="185" y1="112" x2="245" y2="112" stroke="#2563eb" stroke-width="1.5" marker-end="url(#arr)"/>
<rect x="250" y="65" width="190" height="95" rx="10" fill="#f0fdf4" stroke="#16a34a" stroke-width="2"/>
<text x="345" y="90" text-anchor="middle" font-size="14" font-weight="700" fill="#111827">SKILL.md</text>
<text x="345" y="106" text-anchor="middle" font-size="10" fill="#16a34a">核心编排指令</text>
<text x="345" y="122" text-anchor="middle" font-size="10" fill="#6b7280">1. 识别输入类型</text>
<text x="345" y="136" text-anchor="middle" font-size="10" fill="#6b7280">2. 选择 spine → 生成章节</text>
<text x="345" y="150" text-anchor="middle" font-size="10" fill="#6b7280">3. 按 archetype 填充内容</text>
<line x1="440" y1="112" x2="530" y2="112" stroke="#9333ea" stroke-width="1.5" stroke-dasharray="6,3" marker-end="url(#arr-p)"/>
<rect x="456" y="100" width="55" height="16" rx="3" fill="#ffffff" opacity="0.95"/>
<text x="483" y="112" text-anchor="middle" font-size="9" fill="#9333ea">可选</text>
<rect x="535" y="65" width="175" height="95" rx="8" fill="#faf5ff" stroke="#c4b5fd" stroke-width="1.5" stroke-dasharray="6,3"/>
<text x="622" y="87" text-anchor="middle" font-size="12" font-weight="600" fill="#7c3aed">plugins.yaml</text>
<text x="622" y="102" text-anchor="middle" font-size="10" fill="#9333ea">插件注册表</text>
<rect x="548" y="112" width="72" height="20" rx="4" fill="#ede9fe" stroke="none"/>
<text x="584" y="126" text-anchor="middle" font-size="9" fill="#7c3aed">diagram 图表</text>
<rect x="626" y="112" width="72" height="20" rx="4" fill="#ede9fe" stroke="none"/>
<text x="662" y="126" text-anchor="middle" font-size="9" fill="#7c3aed">illustration 配图</text>
<rect x="548" y="137" width="72" height="20" rx="4" fill="#ede9fe" stroke="none"/>
<text x="584" y="151" text-anchor="middle" font-size="9" fill="#7c3aed">data_source</text>
<rect x="626" y="137" width="72" height="20" rx="4" fill="#ede9fe" stroke="none"/>
<text x="662" y="151" text-anchor="middle" font-size="9" fill="#7c3aed">browser</text>
<line x1="345" y1="160" x2="345" y2="215" stroke="#16a34a" stroke-width="1.5" marker-end="url(#arr-g)"/>
<rect x="310" y="180" width="70" height="16" rx="3" fill="#ffffff" opacity="0.95"/>
<text x="345" y="192" text-anchor="middle" font-size="9" fill="#16a34a">读取</text>
<rect x="60" y="220" width="430" height="100" rx="8" fill="#faf5ff" stroke="#e9d5ff" stroke-width="1.5" stroke-dasharray="6,3"/>
<text x="275" y="240" text-anchor="middle" font-size="11" font-weight="600" fill="#7c3aed">references/ 三文件参考系统</text>
<rect x="75" y="252" width="125" height="55" rx="6" fill="#dbeafe" stroke="#93c5fd" stroke-width="1"/>
<text x="137" y="272" text-anchor="middle" font-size="10" font-weight="600" fill="#1e40af">report-spines</text>
<text x="137" y="286" text-anchor="middle" font-size="9" fill="#6b7280">报告骨架选择</text>
<text x="137" y="298" text-anchor="middle" font-size="9" fill="#6b7280">→ 章节顺序</text>
<rect x="213" y="252" width="140" height="55" rx="6" fill="#dcfce7" stroke="#86efac" stroke-width="1"/>
<text x="283" y="272" text-anchor="middle" font-size="10" font-weight="600" fill="#166534">section-archetypes</text>
<text x="283" y="286" text-anchor="middle" font-size="9" fill="#6b7280">章节 Markdown 模板</text>
<text x="283" y="298" text-anchor="middle" font-size="9" fill="#6b7280">→ 内容结构</text>
<rect x="366" y="252" width="110" height="55" rx="6" fill="#fef3c7" stroke="#fde68a" stroke-width="1"/>
<text x="421" y="272" text-anchor="middle" font-size="10" font-weight="600" fill="#92400e">writing-dna</text>
<text x="421" y="286" text-anchor="middle" font-size="9" fill="#6b7280">写作风格锁定</text>
<text x="421" y="298" text-anchor="middle" font-size="9" fill="#6b7280">→ 排版 + 术语</text>
<rect x="560" y="225" width="150" height="50" rx="6" fill="#ffffff" stroke="#d1d5db" stroke-width="1.5"/>
<text x="635" y="248" text-anchor="middle" font-size="10" font-weight="500" fill="#111827">resolve-plugins.py</text>
<text x="635" y="262" text-anchor="middle" font-size="9" fill="#6b7280">解析插件能力</text>
<line x1="622" y1="160" x2="622" y2="220" stroke="#9333ea" stroke-width="1.5" stroke-dasharray="6,3" marker-end="url(#arr-p)"/>
<path d="M 275 320 L 275 420 L 380 420" stroke="#2563eb" stroke-width="1.5" fill="none" marker-end="url(#arr)"/>
<rect x="232" y="362" width="60" height="16" rx="3" fill="#ffffff" opacity="0.95"/>
<text x="262" y="374" text-anchor="middle" font-size="9" fill="#2563eb">生成</text>
<path d="M 635 275 C 635 335, 620 370, 615 390" stroke="#9333ea" stroke-width="1.5" fill="none" stroke-dasharray="6,3" marker-end="url(#arr-p)"/>
<rect x="640" y="320" width="65" height="16" rx="3" fill="#ffffff" opacity="0.95"/>
<text x="672" y="332" text-anchor="middle" font-size="9" fill="#9333ea">SVG / PNG</text>
<rect x="385" y="390" width="230" height="65" rx="10" fill="#f0fdf4" stroke="#16a34a" stroke-width="2"/>
<text x="500" y="418" text-anchor="middle" font-size="14" font-weight="700" fill="#111827">report.md</text>
<text x="500" y="436" text-anchor="middle" font-size="10" fill="#6b7280">结构化中文技术报告 + 图表</text>
<rect x="40" y="500" width="520" height="32" rx="6" fill="#f9fafb" stroke="#e5e7eb" stroke-width="1"/>
<line x1="55" y1="516" x2="85" y2="516" stroke="#2563eb" stroke-width="1.5"/>
<text x="90" y="520" font-size="10" fill="#6b7280">核心流程</text>
<line x1="155" y1="516" x2="185" y2="516" stroke="#16a34a" stroke-width="1.5"/>
<text x="190" y="520" font-size="10" fill="#6b7280">参考文件读取</text>
<line x1="285" y1="516" x2="315" y2="516" stroke="#9333ea" stroke-width="1.5" stroke-dasharray="4,2"/>
<text x="320" y="520" font-size="10" fill="#6b7280">插件增强（可选）</text>
</svg>